<?xml version="1.0" encoding="iso-8859-1"?>
<!-- Generator: Adobe Illustrator 19.0.0, SVG Export Plug-In . SVG Version: 6.00 Build 0)  -->
<svg version="1.1" id="Capa_1" xmlns="http://www.w3.org/2000/svg" xmlns:xlink="http://www.w3.org/1999/xlink" x="0px" y="0px"
	 viewBox="0 0 487.6 487.6" style="enable-background:new 0 0 487.6 487.6;" xml:space="preserve">
<g>
	<g>
		<path d="M487.5,243.8c0-33.3-15.6-64.6-41.7-84.4c5.2-32.3-6.2-65.6-29.2-88.5c-37.1-36.5-83.3-30.2-88.5-29.2
			c-19.8-26-51-41.7-84.4-41.7c-33.3,0-64.6,15.6-84.4,41.7c-5.2-1-50.2-8.5-88.5,29.2c-22.8,22.9-33.2,56.3-29,88.5
			c-26,19.8-41.7,51-41.7,84.4s15.6,64.6,41.7,84.4c-5.2,32.3,6.2,65.6,29.2,88.5c22.9,22.9,56.2,33.3,88.5,29.2
			c19.8,26,51,41.7,84.4,41.7c33.3,0,64.6-15.6,84.4-41.7c5.2,1,50.7,7.9,88.5-29.2c23.2-22.7,33.3-56.2,29.2-88.5
			C471.9,308.4,487.5,277.1,487.5,243.8z M413.6,300c-8.3,5.2-12.5,14.6-9.4,24c7.3,22.9,1,46.9-15.6,63.5
			c-16.7,15.6-40.6,21.9-63.5,15.6c-9.4-3.1-19.8,1-24,9.4c-11.5,21.9-33.3,34.4-57.3,34.4s-45.8-13.5-57.3-34.4
			c-6.2-10.8-18.4-11.7-24-9.4c-21.9,7.3-46.9,1-63.5-15.6c-15.6-16.7-21.9-40.6-15.6-63.5c3.1-9.4-1-19.8-9.4-24
			c-21.9-11.5-34.4-33.3-34.4-57.3s13.5-45.8,34.4-57.3c8.3-5.2,12.5-14.6,9.4-24c-7.3-22.9-1-46.9,15.6-63.5
			c16.7-15.6,40.6-21.9,63.5-15.6c9.4,3.1,19.8-1,24-9.4c11.5-21.8,33.3-34.3,57.3-34.3s45.8,13.5,57.3,34.4
			c5.2,8.3,14.6,12.5,24,9.4c21.9-7.3,46.9-1,63.5,15.6c15.6,16.7,21.9,40.6,15.6,63.5c-3.1,9.4,1,19.8,9.4,24
			c21.9,11.5,34.4,33.3,34.4,57.3C447.9,266.7,434.4,288.6,413.6,300z"/>
		<path d="M243.8,111.5c-71.9,0-131.2,58.3-131.2,131.2c0,71.9,58.3,131.2,131.2,131.2S375,315.7,375,242.8
			C375,170.9,316.7,111.5,243.8,111.5z M243.8,333.4c-50,0-90.6-40.6-90.6-90.6s40.6-90.6,90.6-90.6s90.6,40.6,90.6,90.6
			C334.4,292.7,293.8,333.4,243.8,333.4z"/>
	</g>
</g>
<g>
</g>
<g>
</g>
<g>
</g>
<g>
</g>
<g>
</g>
<g>
</g>
<g>
</g>
<g>
</g>
<g>
</g>
<g>
</g>
<g>
</g>
<g>
</g>
<g>
</g>
<g>
</g>
<g>
</g>
</svg>
