<?xml version="1.0" encoding="iso-8859-1"?>
<!-- Generator: Adobe Illustrator 19.0.0, SVG Export Plug-In . SVG Version: 6.00 Build 0)  -->
<svg version="1.1" id="Layer_1" xmlns="http://www.w3.org/2000/svg" xmlns:xlink="http://www.w3.org/1999/xlink" x="0px" y="0px"
	 viewBox="0 0 512 512" style="enable-background:new 0 0 512 512;" xml:space="preserve">
<path style="fill:#F4D371;" d="M447.481,168.016c-3.941-7.885-11.999-12.865-20.815-12.865H309.172L369.907,33.68
	c3.607-7.213,3.222-15.782-1.018-22.643C364.646,4.177,357.155,0,349.091,0H209.455c-8.816,0-16.874,4.98-20.815,12.865
	L64.519,261.107c-3.607,7.213-3.222,15.782,1.018,22.643s11.733,11.037,19.797,11.037h126.363l-40.513,189.062
	c-2.29,10.687,3.165,21.527,13.112,26.056c3.106,1.413,6.388,2.095,9.635,2.095c7.148,0,14.119-3.299,18.627-9.311l232.727-310.302
	C450.573,185.336,451.424,175.899,447.481,168.016z"/>
<path style="fill:#E9A35F;" d="M447.481,168.016c-3.941-7.885-11.999-12.865-20.815-12.865H309.172L369.907,33.68
	c3.607-7.213,3.222-15.782-1.018-22.643C364.646,4.177,357.155,0,349.091,0H256v444.765l189.284-252.378
	C450.573,185.336,451.424,175.899,447.481,168.016z"/>
<g>
</g>
<g>
</g>
<g>
</g>
<g>
</g>
<g>
</g>
<g>
</g>
<g>
</g>
<g>
</g>
<g>
</g>
<g>
</g>
<g>
</g>
<g>
</g>
<g>
</g>
<g>
</g>
<g>
</g>
</svg>
